<svg width="390" height="844" viewBox="0 0 390 844" fill="none" xmlns="http://www.w3.org/2000/svg">
<rect width="390" height="844" fill="white"/>
<ellipse cx="194.5" cy="283" rx="80.5" ry="80" fill="#D9D9D9"/>
<path d="M144.625 339.5V332.375C144.625 319.147 149.88 306.461 159.233 297.108C168.586 287.755 181.272 282.5 194.5 282.5M194.5 282.5C207.728 282.5 220.414 287.755 229.767 297.108C239.12 306.461 244.375 319.147 244.375 332.375V339.5M194.5 282.5C202.059 282.5 209.308 279.497 214.653 274.153C219.997 268.808 223 261.559 223 254C223 246.441 219.997 239.192 214.653 233.847C209.308 228.503 202.059 225.5 194.5 225.5C186.941 225.5 179.692 228.503 174.347 233.847C169.003 239.192 166 246.441 166 254C166 261.559 169.003 268.808 174.347 274.153C179.692 279.497 186.941 282.5 194.5 282.5Z" stroke="black" stroke-width="1.5" stroke-linecap="round" stroke-linejoin="round"/>
<path d="M86.7216 414V396.545H93.267C94.608 396.545 95.733 396.778 96.642 397.244C97.5568 397.71 98.2472 398.364 98.7131 399.205C99.1847 400.04 99.4205 401.014 99.4205 402.128C99.4205 403.247 99.1818 404.219 98.7045 405.043C98.233 405.861 97.5369 406.494 96.6165 406.943C95.696 407.386 94.5653 407.608 93.2244 407.608H88.5625V404.983H92.7983C93.5824 404.983 94.2244 404.875 94.7244 404.659C95.2244 404.437 95.5938 404.116 95.8324 403.696C96.0767 403.27 96.1989 402.747 96.1989 402.128C96.1989 401.509 96.0767 400.98 95.8324 400.543C95.5881 400.099 95.2159 399.764 94.7159 399.537C94.2159 399.304 93.571 399.188 92.7812 399.188H89.8835V414H86.7216ZM95.7386 406.091L100.06 414H96.5312L92.2869 406.091H95.7386ZM113.334 396.545H116.496V407.949C116.496 409.199 116.2 410.298 115.609 411.247C115.024 412.196 114.2 412.937 113.138 413.472C112.075 414 110.834 414.264 109.413 414.264C107.987 414.264 106.743 414 105.68 413.472C104.618 412.937 103.794 412.196 103.209 411.247C102.624 410.298 102.331 409.199 102.331 407.949V396.545H105.493V407.685C105.493 408.412 105.652 409.06 105.97 409.628C106.294 410.196 106.749 410.642 107.334 410.966C107.919 411.284 108.612 411.443 109.413 411.443C110.214 411.443 110.908 411.284 111.493 410.966C112.084 410.642 112.538 410.196 112.857 409.628C113.175 409.06 113.334 408.412 113.334 407.685V396.545ZM119.933 414V396.545H126.478C127.819 396.545 128.944 396.795 129.853 397.295C130.768 397.795 131.458 398.483 131.924 399.358C132.396 400.227 132.631 401.216 132.631 402.324C132.631 403.443 132.396 404.437 131.924 405.307C131.452 406.176 130.756 406.861 129.836 407.361C128.915 407.855 127.782 408.102 126.435 408.102H122.097V405.503H126.009C126.793 405.503 127.435 405.366 127.935 405.094C128.435 404.821 128.805 404.446 129.043 403.969C129.288 403.491 129.41 402.943 129.41 402.324C129.41 401.705 129.288 401.159 129.043 400.688C128.805 400.216 128.433 399.849 127.927 399.588C127.427 399.321 126.782 399.188 125.992 399.188H123.094V414H119.933ZM135.674 414H132.299L138.444 396.545H142.347L148.501 414H145.126L140.464 400.125H140.327L135.674 414ZM135.785 407.156H144.989V409.696H135.785V407.156ZM165.143 396.545V414H162.331L154.107 402.111H153.962V414H150.8V396.545H153.629L161.845 408.443H161.999V396.545H165.143ZM175.475 396.545H178.612V408.818C178.606 409.943 178.367 410.912 177.896 411.724C177.424 412.531 176.765 413.153 175.918 413.591C175.077 414.023 174.097 414.239 172.978 414.239C171.955 414.239 171.035 414.057 170.217 413.693C169.404 413.324 168.759 412.778 168.282 412.057C167.805 411.335 167.566 410.437 167.566 409.364H170.711C170.717 409.835 170.819 410.241 171.018 410.582C171.222 410.923 171.504 411.185 171.862 411.366C172.219 411.548 172.631 411.639 173.097 411.639C173.603 411.639 174.032 411.534 174.384 411.324C174.737 411.108 175.004 410.79 175.185 410.369C175.373 409.949 175.469 409.432 175.475 408.818V396.545ZM184.283 414H180.908L187.053 396.545H190.957L197.11 414H193.735L189.073 400.125H188.937L184.283 414ZM184.394 407.156H193.599V409.696H184.394V407.156ZM213.753 396.545V414H210.94L202.716 402.111H202.571V414H199.409V396.545H202.239L210.455 408.443H210.608V396.545H213.753ZM219.44 414H216.065L222.21 396.545H226.113L232.266 414H228.891L224.229 400.125H224.093L219.44 414ZM219.55 407.156H228.755V409.696H219.55V407.156ZM250.004 401.344C249.925 400.599 249.589 400.02 248.999 399.605C248.413 399.19 247.652 398.983 246.714 398.983C246.055 398.983 245.49 399.082 245.018 399.281C244.547 399.48 244.186 399.75 243.936 400.091C243.686 400.432 243.558 400.821 243.553 401.259C243.553 401.622 243.635 401.937 243.8 402.205C243.97 402.472 244.2 402.699 244.49 402.886C244.78 403.068 245.101 403.222 245.453 403.347C245.805 403.472 246.161 403.577 246.518 403.662L248.155 404.071C248.814 404.224 249.447 404.432 250.055 404.693C250.669 404.955 251.217 405.284 251.7 405.682C252.189 406.08 252.575 406.56 252.859 407.122C253.143 407.685 253.286 408.344 253.286 409.099C253.286 410.122 253.024 411.023 252.501 411.801C251.979 412.574 251.223 413.179 250.234 413.616C249.251 414.048 248.061 414.264 246.663 414.264C245.305 414.264 244.126 414.054 243.126 413.634C242.132 413.213 241.354 412.599 240.791 411.793C240.234 410.986 239.933 410.003 239.888 408.844H242.999C243.044 409.452 243.232 409.957 243.561 410.361C243.891 410.764 244.32 411.065 244.848 411.264C245.382 411.463 245.979 411.562 246.638 411.562C247.325 411.562 247.928 411.46 248.445 411.256C248.967 411.045 249.376 410.756 249.672 410.386C249.967 410.011 250.118 409.574 250.124 409.074C250.118 408.619 249.984 408.244 249.723 407.949C249.462 407.648 249.095 407.398 248.624 407.199C248.158 406.994 247.612 406.812 246.987 406.653L245.001 406.142C243.564 405.773 242.428 405.213 241.592 404.463C240.763 403.707 240.348 402.705 240.348 401.455C240.348 400.426 240.626 399.526 241.183 398.753C241.746 397.98 242.51 397.381 243.476 396.955C244.442 396.523 245.536 396.307 246.757 396.307C247.996 396.307 249.081 396.523 250.013 396.955C250.95 397.381 251.686 397.974 252.22 398.736C252.754 399.491 253.03 400.361 253.047 401.344H250.004ZM258.065 414H254.69L260.835 396.545H264.738L270.891 414H267.516L262.854 400.125H262.718L258.065 414ZM258.175 407.156H267.38V409.696H258.175V407.156ZM273.19 414V396.545H276.352V403.935H284.44V396.545H287.611V414H284.44V406.585H276.352V414H273.19ZM293.291 414H289.916L296.061 396.545H299.964L306.118 414H302.743L298.081 400.125H297.945L293.291 414ZM293.402 407.156H302.607V409.696H293.402V407.156Z" fill="black"/>
<path d="M106.321 445V434.091H112.862V435.263H107.642V438.949H112.372V440.121H107.642V445H106.321ZM115.125 445V434.091H118.811C119.663 434.091 120.363 434.237 120.91 434.528C121.456 434.815 121.861 435.211 122.124 435.716C122.387 436.22 122.518 436.793 122.518 437.436C122.518 438.079 122.387 438.649 122.124 439.146C121.861 439.643 121.458 440.034 120.915 440.318C120.372 440.598 119.677 440.739 118.832 440.739H115.849V439.545H118.79C119.372 439.545 119.841 439.46 120.196 439.29C120.554 439.119 120.814 438.878 120.973 438.565C121.137 438.249 121.218 437.873 121.218 437.436C121.218 436.999 121.137 436.618 120.973 436.291C120.81 435.964 120.549 435.712 120.19 435.534C119.832 435.353 119.358 435.263 118.768 435.263H116.446V445H115.125ZM120.26 440.099L122.944 445H121.41L118.768 440.099H120.26ZM133.924 439.545C133.924 440.696 133.716 441.69 133.301 442.528C132.885 443.366 132.315 444.013 131.591 444.467C130.866 444.922 130.039 445.149 129.109 445.149C128.178 445.149 127.351 444.922 126.626 444.467C125.902 444.013 125.332 443.366 124.917 442.528C124.501 441.69 124.293 440.696 124.293 439.545C124.293 438.395 124.501 437.401 124.917 436.562C125.332 435.724 125.902 435.078 126.626 434.624C127.351 434.169 128.178 433.942 129.109 433.942C130.039 433.942 130.866 434.169 131.591 434.624C132.315 435.078 132.885 435.724 133.301 436.562C133.716 437.401 133.924 438.395 133.924 439.545ZM132.646 439.545C132.646 438.601 132.488 437.804 132.172 437.154C131.859 436.504 131.435 436.012 130.898 435.678C130.366 435.344 129.769 435.178 129.109 435.178C128.448 435.178 127.85 435.344 127.314 435.678C126.781 436.012 126.357 436.504 126.04 437.154C125.728 437.804 125.572 438.601 125.572 439.545C125.572 440.49 125.728 441.287 126.04 441.937C126.357 442.587 126.781 443.079 127.314 443.413C127.85 443.746 128.448 443.913 129.109 443.913C129.769 443.913 130.366 443.746 130.898 443.413C131.435 443.079 131.859 442.587 132.172 441.937C132.488 441.287 132.646 440.49 132.646 439.545ZM144.796 434.091V445H143.517L137.573 436.435H137.466V445H136.145V434.091H137.424L143.39 442.678H143.496V434.091H144.796ZM146.843 435.263V434.091H155.024V435.263H151.594V445H150.273V435.263H146.843ZM157.063 445V434.091H163.647V435.263H158.384V438.949H163.306V440.121H158.384V443.828H163.732V445H157.063ZM174.679 434.091V445H173.4L167.456 436.435H167.349V445H166.028V434.091H167.306L173.272 442.678H173.379V434.091H174.679ZM180.688 445H177.322V434.091H180.838C181.896 434.091 182.801 434.309 183.554 434.746C184.307 435.179 184.884 435.803 185.285 436.616C185.687 437.425 185.887 438.395 185.887 439.524C185.887 440.661 185.685 441.639 185.28 442.459C184.875 443.276 184.286 443.904 183.512 444.345C182.737 444.782 181.796 445 180.688 445ZM178.643 443.828H180.603C181.505 443.828 182.253 443.654 182.846 443.306C183.439 442.958 183.881 442.463 184.172 441.82C184.463 441.177 184.609 440.412 184.609 439.524C184.609 438.643 184.465 437.885 184.177 437.25C183.89 436.61 183.46 436.12 182.888 435.779C182.317 435.435 181.605 435.263 180.752 435.263H178.643V443.828ZM195.688 445H192.322V434.091H195.838C196.896 434.091 197.801 434.309 198.554 434.746C199.307 435.179 199.884 435.803 200.285 436.616C200.687 437.425 200.887 438.395 200.887 439.524C200.887 440.661 200.685 441.639 200.28 442.459C199.875 443.276 199.286 443.904 198.512 444.345C197.737 444.782 196.796 445 195.688 445ZM193.643 443.828H195.603C196.505 443.828 197.253 443.654 197.846 443.306C198.439 442.958 198.881 442.463 199.172 441.82C199.463 441.177 199.609 440.412 199.609 439.524C199.609 438.643 199.465 437.885 199.177 437.25C198.89 436.61 198.46 436.12 197.888 435.779C197.317 435.435 196.605 435.263 195.752 435.263H193.643V443.828ZM203.103 445V434.091H209.687V435.263H204.424V438.949H209.346V440.121H204.424V443.828H209.772V445H203.103ZM212.516 434.091L215.754 443.274H215.882L219.121 434.091H220.506L216.5 445H215.136L211.131 434.091H212.516ZM222.205 445V434.091H228.789V435.263H223.526V438.949H228.448V440.121H223.526V443.828H228.874V445H222.205ZM231.17 445V434.091H232.491V443.828H237.562V445H231.17ZM248.387 439.545C248.387 440.696 248.179 441.69 247.764 442.528C247.348 443.366 246.778 444.013 246.054 444.467C245.329 444.922 244.502 445.149 243.572 445.149C242.641 445.149 241.814 444.922 241.089 444.467C240.365 444.013 239.795 443.366 239.379 442.528C238.964 441.69 238.756 440.696 238.756 439.545C238.756 438.395 238.964 437.401 239.379 436.562C239.795 435.724 240.365 435.078 241.089 434.624C241.814 434.169 242.641 433.942 243.572 433.942C244.502 433.942 245.329 434.169 246.054 434.624C246.778 435.078 247.348 435.724 247.764 436.562C248.179 437.401 248.387 438.395 248.387 439.545ZM247.108 439.545C247.108 438.601 246.95 437.804 246.634 437.154C246.322 436.504 245.898 436.012 245.361 435.678C244.829 435.344 244.232 435.178 243.572 435.178C242.911 435.178 242.313 435.344 241.776 435.678C241.244 436.012 240.819 436.504 240.503 437.154C240.191 437.804 240.035 438.601 240.035 439.545C240.035 440.49 240.191 441.287 240.503 441.937C240.819 442.587 241.244 443.079 241.776 443.413C242.313 443.746 242.911 443.913 243.572 443.913C244.232 443.913 244.829 443.746 245.361 443.413C245.898 443.079 246.322 442.587 246.634 441.937C246.95 441.287 247.108 440.49 247.108 439.545ZM250.608 445V434.091H254.294C255.15 434.091 255.85 434.245 256.393 434.554C256.94 434.86 257.345 435.273 257.607 435.795C257.87 436.317 258.002 436.9 258.002 437.543C258.002 438.185 257.87 438.77 257.607 439.295C257.348 439.821 256.947 440.24 256.404 440.552C255.86 440.861 255.164 441.016 254.316 441.016H251.673V439.844H254.273C254.859 439.844 255.329 439.743 255.684 439.54C256.04 439.338 256.297 439.064 256.457 438.72C256.62 438.372 256.702 437.979 256.702 437.543C256.702 437.106 256.62 436.715 256.457 436.371C256.297 436.026 256.038 435.756 255.679 435.561C255.32 435.362 254.845 435.263 254.252 435.263H251.929V445H250.608ZM260.13 445V434.091H266.713V435.263H261.451V438.949H266.373V440.121H261.451V443.828H266.799V445H260.13ZM269.094 445V434.091H272.781C273.633 434.091 274.332 434.237 274.879 434.528C275.426 434.815 275.831 435.211 276.094 435.716C276.357 436.22 276.488 436.793 276.488 437.436C276.488 438.079 276.357 438.649 276.094 439.146C275.831 439.643 275.428 440.034 274.885 440.318C274.341 440.598 273.647 440.739 272.802 440.739H269.819V439.545H272.759C273.342 439.545 273.81 439.46 274.165 439.29C274.524 439.119 274.783 438.878 274.943 438.565C275.107 438.249 275.188 437.873 275.188 437.436C275.188 436.999 275.107 436.618 274.943 436.291C274.78 435.964 274.519 435.712 274.16 435.534C273.801 435.353 273.327 435.263 272.738 435.263H270.415V445H269.094ZM274.229 440.099L276.914 445H275.38L272.738 440.099H274.229Z" fill="black"/>
<path d="M89.1615 481V471.545H92.3561C93.0978 471.545 93.7041 471.679 94.175 471.947C94.6489 472.212 94.9998 472.57 95.2275 473.023C95.4553 473.475 95.5692 473.98 95.5692 474.537C95.5692 475.094 95.4553 475.6 95.2275 476.056C95.0029 476.511 94.6551 476.874 94.1842 477.145C93.7133 477.413 93.1101 477.547 92.3746 477.547H90.0848V476.531H92.3376C92.8454 476.531 93.2532 476.444 93.561 476.268C93.8688 476.093 94.0919 475.856 94.2304 475.557C94.372 475.256 94.4427 474.915 94.4427 474.537C94.4427 474.158 94.372 473.82 94.2304 473.521C94.0919 473.223 93.8672 472.989 93.5564 472.82C93.2455 472.647 92.8331 472.561 92.3192 472.561H90.3064V481H89.1615ZM97.4134 481V471.545H100.608C101.347 471.545 101.953 471.672 102.427 471.924C102.901 472.173 103.252 472.516 103.479 472.953C103.707 473.391 103.821 473.888 103.821 474.445C103.821 475.002 103.707 475.496 103.479 475.926C103.252 476.357 102.902 476.696 102.432 476.942C101.961 477.185 101.359 477.307 100.627 477.307H98.0413V476.273H100.59C101.094 476.273 101.501 476.199 101.808 476.051C102.119 475.903 102.344 475.694 102.482 475.423C102.624 475.149 102.695 474.823 102.695 474.445C102.695 474.066 102.624 473.735 102.482 473.452C102.341 473.169 102.115 472.95 101.804 472.797C101.493 472.64 101.082 472.561 100.571 472.561H98.5583V481H97.4134ZM101.864 476.753L104.19 481H102.861L100.571 476.753H101.864ZM113.706 476.273C113.706 477.27 113.526 478.132 113.166 478.858C112.806 479.584 112.312 480.144 111.684 480.538C111.056 480.932 110.339 481.129 109.533 481.129C108.727 481.129 108.009 480.932 107.382 480.538C106.754 480.144 106.26 479.584 105.9 478.858C105.54 478.132 105.36 477.27 105.36 476.273C105.36 475.276 105.54 474.414 105.9 473.688C106.26 472.961 106.754 472.401 107.382 472.007C108.009 471.613 108.727 471.416 109.533 471.416C110.339 471.416 111.056 471.613 111.684 472.007C112.312 472.401 112.806 472.961 113.166 473.688C113.526 474.414 113.706 475.276 113.706 476.273ZM112.598 476.273C112.598 475.454 112.461 474.763 112.187 474.2C111.916 473.637 111.549 473.21 111.084 472.921C110.622 472.632 110.105 472.487 109.533 472.487C108.96 472.487 108.442 472.632 107.977 472.921C107.515 473.21 107.148 473.637 106.874 474.2C106.603 474.763 106.468 475.454 106.468 476.273C106.468 477.091 106.603 477.782 106.874 478.346C107.148 478.909 107.515 479.335 107.977 479.624C108.442 479.914 108.96 480.058 109.533 480.058C110.105 480.058 110.622 479.914 111.084 479.624C111.549 479.335 111.916 478.909 112.187 478.346C112.461 477.782 112.598 477.091 112.598 476.273ZM115.631 481V471.545H121.3V472.561H116.776V475.756H120.876V476.771H116.776V481H115.631ZM124.406 471.545V481H123.261V471.545H124.406ZM134.309 474.5H133.165C133.097 474.171 132.978 473.881 132.809 473.632C132.643 473.383 132.44 473.174 132.2 473.004C131.963 472.832 131.7 472.703 131.41 472.616C131.121 472.53 130.819 472.487 130.506 472.487C129.933 472.487 129.414 472.632 128.95 472.921C128.488 473.21 128.12 473.637 127.846 474.2C127.576 474.763 127.44 475.454 127.44 476.273C127.44 477.091 127.576 477.782 127.846 478.346C128.12 478.909 128.488 479.335 128.95 479.624C129.414 479.914 129.933 480.058 130.506 480.058C130.819 480.058 131.121 480.015 131.41 479.929C131.7 479.843 131.963 479.715 132.2 479.546C132.44 479.373 132.643 479.163 132.809 478.913C132.978 478.661 133.097 478.372 133.165 478.045H134.309C134.223 478.529 134.066 478.961 133.839 479.343C133.611 479.724 133.328 480.049 132.989 480.317C132.651 480.581 132.271 480.783 131.849 480.922C131.43 481.06 130.983 481.129 130.506 481.129C129.699 481.129 128.982 480.932 128.354 480.538C127.726 480.144 127.232 479.584 126.872 478.858C126.512 478.132 126.332 477.27 126.332 476.273C126.332 475.276 126.512 474.414 126.872 473.688C127.232 472.961 127.726 472.401 128.354 472.007C128.982 471.613 129.699 471.416 130.506 471.416C130.983 471.416 131.43 471.485 131.849 471.624C132.271 471.762 132.651 471.966 132.989 472.233C133.328 472.498 133.611 472.821 133.839 473.203C134.066 473.581 134.223 474.014 134.309 474.5ZM137.304 471.545V481H136.16V471.545H137.304ZM139.6 481V471.545H145.306V472.561H140.745V475.756H145.01V476.771H140.745V479.984H145.38V481H139.6ZM154.867 471.545V481H153.759L148.607 473.577H148.514V481H147.369V471.545H148.477L153.648 478.987H153.74V471.545H154.867ZM156.641 472.561V471.545H163.731V472.561H160.758V481H159.614V472.561H156.641ZM170.3 471.545V481H169.155V471.545H170.3ZM180.092 471.545V481H178.984L173.832 473.577H173.74V481H172.595V471.545H173.703L178.873 478.987H178.966V471.545H180.092ZM186.039 481V471.545H187.184V475.756H192.225V471.545H193.37V481H192.225V476.771H187.184V481H186.039ZM195.145 472.561V471.545H202.236V472.561H199.263V481H198.118V472.561H195.145ZM204.003 471.545H205.37L208.583 479.393H208.694L211.907 471.545H213.273V481H212.202V473.817H212.11L209.155 481H208.121L205.167 473.817H205.074V481H204.003V471.545ZM215.569 481V471.545H216.714V479.984H221.108V481H215.569ZM224.358 479.707L224.285 480.206C224.232 480.557 224.152 480.932 224.045 481.332C223.94 481.732 223.831 482.109 223.717 482.463C223.603 482.817 223.509 483.099 223.435 483.308H222.604C222.644 483.111 222.697 482.851 222.761 482.528C222.826 482.205 222.89 481.843 222.955 481.443C223.023 481.046 223.078 480.64 223.121 480.224L223.177 479.707H224.358ZM234.133 474.5H232.988C232.92 474.171 232.802 473.881 232.632 473.632C232.466 473.383 232.263 473.174 232.023 473.004C231.786 472.832 231.523 472.703 231.234 472.616C230.944 472.53 230.643 472.487 230.329 472.487C229.756 472.487 229.238 472.632 228.773 472.921C228.311 473.21 227.944 473.637 227.67 474.2C227.399 474.763 227.263 475.454 227.263 476.273C227.263 477.091 227.399 477.782 227.67 478.346C227.944 478.909 228.311 479.335 228.773 479.624C229.238 479.914 229.756 480.058 230.329 480.058C230.643 480.058 230.944 480.015 231.234 479.929C231.523 479.843 231.786 479.715 232.023 479.546C232.263 479.373 232.466 479.163 232.632 478.913C232.802 478.661 232.92 478.372 232.988 478.045H234.133C234.047 478.529 233.89 478.961 233.662 479.343C233.434 479.724 233.151 480.049 232.812 480.317C232.474 480.581 232.094 480.783 231.672 480.922C231.254 481.06 230.806 481.129 230.329 481.129C229.522 481.129 228.805 480.932 228.177 480.538C227.55 480.144 227.056 479.584 226.696 478.858C226.335 478.132 226.155 477.27 226.155 476.273C226.155 475.276 226.335 474.414 226.696 473.688C227.056 472.961 227.55 472.401 228.177 472.007C228.805 471.613 229.522 471.416 230.329 471.416C230.806 471.416 231.254 471.485 231.672 471.624C232.094 471.762 232.474 471.966 232.812 472.233C233.151 472.498 233.434 472.821 233.662 473.203C233.89 473.581 234.047 474.014 234.133 474.5ZM241.153 473.909C241.098 473.441 240.873 473.078 240.479 472.82C240.085 472.561 239.602 472.432 239.03 472.432C238.611 472.432 238.245 472.5 237.931 472.635C237.62 472.77 237.377 472.957 237.202 473.194C237.029 473.431 236.943 473.7 236.943 474.001C236.943 474.254 237.003 474.471 237.123 474.652C237.246 474.831 237.403 474.98 237.594 475.1C237.785 475.217 237.985 475.314 238.194 475.391C238.403 475.465 238.596 475.525 238.771 475.571L239.731 475.83C239.978 475.894 240.251 475.983 240.553 476.097C240.858 476.211 241.149 476.367 241.426 476.564C241.706 476.757 241.936 477.007 242.118 477.311C242.3 477.616 242.39 477.99 242.39 478.433C242.39 478.944 242.257 479.406 241.989 479.818C241.724 480.231 241.336 480.558 240.825 480.801C240.318 481.045 239.701 481.166 238.974 481.166C238.297 481.166 237.711 481.057 237.215 480.838C236.723 480.62 236.335 480.315 236.052 479.924C235.772 479.533 235.613 479.08 235.577 478.562H236.758C236.789 478.92 236.909 479.215 237.118 479.449C237.331 479.68 237.599 479.852 237.922 479.966C238.248 480.077 238.599 480.132 238.974 480.132C239.411 480.132 239.804 480.061 240.151 479.92C240.499 479.775 240.775 479.575 240.978 479.32C241.181 479.061 241.282 478.759 241.282 478.415C241.282 478.101 241.195 477.845 241.019 477.648C240.844 477.451 240.613 477.291 240.327 477.168C240.041 477.045 239.731 476.937 239.399 476.845L238.236 476.513C237.497 476.3 236.912 475.997 236.481 475.603C236.05 475.209 235.835 474.694 235.835 474.057C235.835 473.527 235.978 473.066 236.264 472.672C236.554 472.275 236.941 471.967 237.428 471.749C237.917 471.527 238.463 471.416 239.067 471.416C239.676 471.416 240.218 471.525 240.692 471.744C241.166 471.959 241.541 472.255 241.818 472.63C242.098 473.006 242.246 473.432 242.261 473.909H241.153ZM249.443 473.909C249.388 473.441 249.163 473.078 248.769 472.82C248.375 472.561 247.892 472.432 247.32 472.432C246.901 472.432 246.535 472.5 246.221 472.635C245.91 472.77 245.667 472.957 245.492 473.194C245.319 473.431 245.233 473.7 245.233 474.001C245.233 474.254 245.293 474.471 245.413 474.652C245.536 474.831 245.693 474.98 245.884 475.1C246.075 475.217 246.275 475.314 246.484 475.391C246.693 475.465 246.886 475.525 247.061 475.571L248.021 475.83C248.268 475.894 248.542 475.983 248.843 476.097C249.148 476.211 249.439 476.367 249.716 476.564C249.996 476.757 250.227 477.007 250.408 477.311C250.59 477.616 250.68 477.99 250.68 478.433C250.68 478.944 250.547 479.406 250.279 479.818C250.014 480.231 249.626 480.558 249.116 480.801C248.608 481.045 247.991 481.166 247.264 481.166C246.587 481.166 246.001 481.057 245.505 480.838C245.013 480.62 244.625 480.315 244.342 479.924C244.062 479.533 243.903 479.08 243.867 478.562H245.048C245.079 478.92 245.199 479.215 245.408 479.449C245.621 479.68 245.889 479.852 246.212 479.966C246.538 480.077 246.889 480.132 247.264 480.132C247.701 480.132 248.094 480.061 248.441 479.92C248.789 479.775 249.065 479.575 249.268 479.32C249.471 479.061 249.573 478.759 249.573 478.415C249.573 478.101 249.485 477.845 249.309 477.648C249.134 477.451 248.903 477.291 248.617 477.168C248.331 477.045 248.021 476.937 247.689 476.845L246.526 476.513C245.787 476.3 245.202 475.997 244.771 475.603C244.341 475.209 244.125 474.694 244.125 474.057C244.125 473.527 244.268 473.066 244.554 472.672C244.844 472.275 245.232 471.967 245.718 471.749C246.207 471.527 246.753 471.416 247.357 471.416C247.966 471.416 248.508 471.525 248.982 471.744C249.456 471.959 249.831 472.255 250.108 472.63C250.388 473.006 250.536 473.432 250.551 473.909H249.443ZM254.04 479.707L253.966 480.206C253.914 480.557 253.834 480.932 253.726 481.332C253.622 481.732 253.512 482.109 253.398 482.463C253.285 482.817 253.191 483.099 253.117 483.308H252.286C252.326 483.111 252.378 482.851 252.443 482.528C252.507 482.205 252.572 481.843 252.637 481.443C252.704 481.046 252.76 480.64 252.803 480.224L252.858 479.707H254.04ZM259.826 471.545H260.971V478.304C260.971 478.907 260.86 479.42 260.638 479.841C260.417 480.263 260.104 480.583 259.701 480.801C259.298 481.02 258.822 481.129 258.275 481.129C257.758 481.129 257.297 481.035 256.894 480.848C256.491 480.657 256.174 480.386 255.943 480.035C255.712 479.684 255.597 479.267 255.597 478.784H256.723C256.723 479.052 256.79 479.286 256.922 479.486C257.057 479.683 257.242 479.837 257.476 479.947C257.71 480.058 257.976 480.114 258.275 480.114C258.604 480.114 258.884 480.044 259.115 479.906C259.346 479.767 259.521 479.564 259.641 479.297C259.764 479.026 259.826 478.695 259.826 478.304V471.545ZM268.435 473.909C268.38 473.441 268.155 473.078 267.761 472.82C267.368 472.561 266.884 472.432 266.312 472.432C265.893 472.432 265.527 472.5 265.213 472.635C264.902 472.77 264.659 472.957 264.484 473.194C264.311 473.431 264.225 473.7 264.225 474.001C264.225 474.254 264.285 474.471 264.405 474.652C264.528 474.831 264.685 474.98 264.876 475.1C265.067 475.217 265.267 475.314 265.476 475.391C265.686 475.465 265.878 475.525 266.053 475.571L267.014 475.83C267.26 475.894 267.534 475.983 267.835 476.097C268.14 476.211 268.431 476.367 268.708 476.564C268.988 476.757 269.219 477.007 269.4 477.311C269.582 477.616 269.673 477.99 269.673 478.433C269.673 478.944 269.539 479.406 269.271 479.818C269.006 480.231 268.619 480.558 268.108 480.801C267.6 481.045 266.983 481.166 266.256 481.166C265.579 481.166 264.993 481.057 264.498 480.838C264.005 480.62 263.617 480.315 263.334 479.924C263.054 479.533 262.896 479.08 262.859 478.562H264.041C264.071 478.92 264.191 479.215 264.401 479.449C264.613 479.68 264.881 479.852 265.204 479.966C265.53 480.077 265.881 480.132 266.256 480.132C266.694 480.132 267.086 480.061 267.434 479.92C267.781 479.775 268.057 479.575 268.26 479.32C268.463 479.061 268.565 478.759 268.565 478.415C268.565 478.101 268.477 477.845 268.302 477.648C268.126 477.451 267.895 477.291 267.609 477.168C267.323 477.045 267.014 476.937 266.681 476.845L265.518 476.513C264.779 476.3 264.194 475.997 263.764 475.603C263.333 475.209 263.117 474.694 263.117 474.057C263.117 473.527 263.26 473.066 263.547 472.672C263.836 472.275 264.224 471.967 264.71 471.749C265.199 471.527 265.746 471.416 266.349 471.416C266.958 471.416 267.5 471.525 267.974 471.744C268.448 471.959 268.823 472.255 269.1 472.63C269.38 473.006 269.528 473.432 269.543 473.909H268.435ZM275.599 481H274.399L277.87 471.545H279.052L282.524 481H281.324L278.498 473.041H278.424L275.599 481ZM276.042 477.307H280.88V478.322H276.042V477.307ZM291.494 471.545V481H290.386L285.234 473.577H285.141V481H283.996V471.545H285.104L290.275 478.987H290.367V471.545H291.494ZM296.702 481H293.785V471.545H296.831C297.749 471.545 298.533 471.735 299.186 472.113C299.838 472.489 300.338 473.029 300.686 473.734C301.034 474.435 301.208 475.276 301.208 476.254C301.208 477.239 301.032 478.087 300.682 478.798C300.331 479.506 299.82 480.051 299.149 480.432C298.478 480.811 297.662 481 296.702 481ZM294.929 479.984H296.628C297.41 479.984 298.058 479.834 298.572 479.532C299.086 479.23 299.469 478.801 299.721 478.244C299.974 477.687 300.1 477.024 300.1 476.254C300.1 475.491 299.975 474.834 299.726 474.283C299.477 473.729 299.104 473.304 298.609 473.009C298.113 472.71 297.496 472.561 296.758 472.561H294.929V479.984ZM175.033 497V487.545H178.227C178.966 487.545 179.572 487.672 180.046 487.924C180.52 488.173 180.871 488.516 181.099 488.953C181.326 489.391 181.44 489.888 181.44 490.445C181.44 491.002 181.326 491.496 181.099 491.926C180.871 492.357 180.522 492.696 180.051 492.942C179.58 493.185 178.978 493.307 178.246 493.307H175.66V492.273H178.209C178.713 492.273 179.12 492.199 179.427 492.051C179.738 491.903 179.963 491.694 180.101 491.423C180.243 491.149 180.314 490.823 180.314 490.445C180.314 490.066 180.243 489.735 180.101 489.452C179.96 489.169 179.734 488.95 179.423 488.797C179.112 488.64 178.701 488.561 178.19 488.561H176.177V497H175.033ZM179.483 492.753L181.81 497H180.48L178.19 492.753H179.483ZM183.348 497V487.545H189.054V488.561H184.493V491.756H188.759V492.771H184.493V495.984H189.128V497H183.348ZM191.505 497H190.305L193.777 487.545H194.958L198.43 497H197.23L194.404 489.041H194.331L191.505 497ZM191.949 493.307H196.787V494.322H191.949V493.307ZM207.066 490.5H205.921C205.854 490.171 205.735 489.881 205.566 489.632C205.4 489.383 205.197 489.174 204.957 489.004C204.72 488.832 204.456 488.703 204.167 488.616C203.878 488.53 203.576 488.487 203.262 488.487C202.69 488.487 202.171 488.632 201.707 488.921C201.245 489.21 200.877 489.637 200.603 490.2C200.332 490.763 200.197 491.454 200.197 492.273C200.197 493.091 200.332 493.782 200.603 494.346C200.877 494.909 201.245 495.335 201.707 495.624C202.171 495.914 202.69 496.058 203.262 496.058C203.576 496.058 203.878 496.015 204.167 495.929C204.456 495.843 204.72 495.715 204.957 495.546C205.197 495.373 205.4 495.163 205.566 494.913C205.735 494.661 205.854 494.372 205.921 494.045H207.066C206.98 494.529 206.823 494.961 206.595 495.343C206.368 495.724 206.085 496.049 205.746 496.317C205.407 496.581 205.027 496.783 204.606 496.922C204.187 497.06 203.739 497.129 203.262 497.129C202.456 497.129 201.739 496.932 201.111 496.538C200.483 496.144 199.989 495.584 199.629 494.858C199.269 494.132 199.089 493.27 199.089 492.273C199.089 491.276 199.269 490.414 199.629 489.688C199.989 488.961 200.483 488.401 201.111 488.007C201.739 487.613 202.456 487.416 203.262 487.416C203.739 487.416 204.187 487.485 204.606 487.624C205.027 487.762 205.407 487.966 205.746 488.233C206.085 488.498 206.368 488.821 206.595 489.203C206.823 489.581 206.98 490.014 207.066 490.5ZM208.399 488.561V487.545H215.49V488.561H212.517V497H211.372V488.561H208.399Z" fill="#444444"/>
<rect x="85" y="543" width="106" height="32" rx="16" fill="#ADD8E6"/>
<rect x="204" y="543" width="106" height="32" rx="16" fill="#D9D9D9"/>
<path d="M117.305 561V552.273H122.716V553.406H118.621V556.065H122.329V557.195H118.621V561H117.305ZM131.917 556.636C131.917 557.568 131.746 558.369 131.405 559.04C131.064 559.707 130.597 560.222 130.003 560.582C129.412 560.94 128.741 561.119 127.988 561.119C127.232 561.119 126.557 560.94 125.964 560.582C125.373 560.222 124.907 559.706 124.566 559.036C124.225 558.365 124.055 557.565 124.055 556.636C124.055 555.705 124.225 554.905 124.566 554.237C124.907 553.567 125.373 553.053 125.964 552.695C126.557 552.334 127.232 552.153 127.988 552.153C128.741 552.153 129.412 552.334 130.003 552.695C130.597 553.053 131.064 553.567 131.405 554.237C131.746 554.905 131.917 555.705 131.917 556.636ZM130.613 556.636C130.613 555.926 130.498 555.328 130.268 554.842C130.04 554.354 129.728 553.984 129.33 553.734C128.935 553.482 128.488 553.355 127.988 553.355C127.485 553.355 127.036 553.482 126.641 553.734C126.246 553.984 125.934 554.354 125.704 554.842C125.476 555.328 125.363 555.926 125.363 556.636C125.363 557.347 125.476 557.946 125.704 558.435C125.934 558.92 126.246 559.29 126.641 559.543C127.036 559.793 127.485 559.918 127.988 559.918C128.488 559.918 128.935 559.793 129.33 559.543C129.728 559.29 130.04 558.92 130.268 558.435C130.498 557.946 130.613 557.347 130.613 556.636ZM133.558 561V552.273H134.875V559.866H138.83V561H133.558ZM140.332 561V552.273H141.649V559.866H145.603V561H140.332ZM154.346 556.636C154.346 557.568 154.176 558.369 153.835 559.04C153.494 559.707 153.027 560.222 152.433 560.582C151.842 560.94 151.17 561.119 150.417 561.119C149.662 561.119 148.987 560.94 148.393 560.582C147.802 560.222 147.336 559.706 146.996 559.036C146.655 558.365 146.484 557.565 146.484 556.636C146.484 555.705 146.655 554.905 146.996 554.237C147.336 553.567 147.802 553.053 148.393 552.695C148.987 552.334 149.662 552.153 150.417 552.153C151.17 552.153 151.842 552.334 152.433 552.695C153.027 553.053 153.494 553.567 153.835 554.237C154.176 554.905 154.346 555.705 154.346 556.636ZM153.042 556.636C153.042 555.926 152.927 555.328 152.697 554.842C152.47 554.354 152.157 553.984 151.76 553.734C151.365 553.482 150.917 553.355 150.417 553.355C149.915 553.355 149.466 553.482 149.071 553.734C148.676 553.984 148.363 554.354 148.133 554.842C147.906 555.328 147.792 555.926 147.792 556.636C147.792 557.347 147.906 557.946 148.133 558.435C148.363 558.92 148.676 559.29 149.071 559.543C149.466 559.793 149.915 559.918 150.417 559.918C150.917 559.918 151.365 559.793 151.76 559.543C152.157 559.29 152.47 558.92 152.697 558.435C152.927 557.946 153.042 557.347 153.042 556.636ZM157.591 561L155.171 552.273H156.556L158.256 559.031H158.337L160.106 552.273H161.478L163.246 559.036H163.327L165.023 552.273H166.412L163.988 561H162.662L160.826 554.463H160.758L158.921 561H157.591Z" fill="black"/>
<path d="M228.666 552.273H230.264L233.042 559.057H233.145L235.923 552.273H237.521V561H236.268V554.685H236.187L233.613 560.987H232.574L230 554.68H229.919V561H228.666V552.273ZM239.435 561V552.273H244.907V553.406H240.752V556.065H244.621V557.195H240.752V559.866H244.958V561H239.435ZM251.426 554.565C251.38 554.162 251.193 553.849 250.863 553.628C250.534 553.403 250.119 553.291 249.619 553.291C249.261 553.291 248.951 553.348 248.69 553.462C248.429 553.572 248.225 553.726 248.081 553.922C247.939 554.115 247.868 554.335 247.868 554.582C247.868 554.79 247.916 554.969 248.012 555.119C248.112 555.27 248.241 555.396 248.4 555.499C248.562 555.598 248.735 555.682 248.92 555.75C249.105 555.815 249.282 555.869 249.453 555.912L250.305 556.134C250.583 556.202 250.869 556.294 251.162 556.411C251.454 556.527 251.725 556.68 251.975 556.871C252.225 557.061 252.427 557.297 252.581 557.578C252.737 557.859 252.815 558.196 252.815 558.588C252.815 559.082 252.687 559.521 252.431 559.905C252.179 560.288 251.811 560.591 251.328 560.812C250.848 561.034 250.267 561.145 249.585 561.145C248.931 561.145 248.366 561.041 247.889 560.834C247.412 560.626 247.038 560.332 246.768 559.952C246.498 559.568 246.349 559.114 246.321 558.588H247.642C247.667 558.903 247.77 559.166 247.949 559.376C248.13 559.584 248.362 559.739 248.643 559.841C248.927 559.94 249.238 559.99 249.576 559.99C249.949 559.99 250.279 559.932 250.569 559.815C250.862 559.696 251.092 559.531 251.26 559.321C251.427 559.108 251.511 558.859 251.511 558.575C251.511 558.317 251.437 558.105 251.289 557.94C251.145 557.776 250.947 557.639 250.697 557.531C250.45 557.423 250.17 557.328 249.858 557.246L248.826 556.964C248.127 556.774 247.574 556.494 247.164 556.125C246.758 555.756 246.555 555.267 246.555 554.659C246.555 554.156 246.691 553.717 246.964 553.342C247.237 552.967 247.606 552.676 248.072 552.469C248.538 552.259 249.064 552.153 249.649 552.153C250.24 552.153 250.761 552.257 251.213 552.464C251.667 552.672 252.025 552.957 252.287 553.321C252.548 553.682 252.684 554.097 252.696 554.565H251.426ZM259.148 554.565C259.103 554.162 258.915 553.849 258.586 553.628C258.256 553.403 257.842 553.291 257.342 553.291C256.984 553.291 256.674 553.348 256.413 553.462C256.151 553.572 255.948 553.726 255.803 553.922C255.661 554.115 255.59 554.335 255.59 554.582C255.59 554.79 255.638 554.969 255.735 555.119C255.835 555.27 255.964 555.396 256.123 555.499C256.285 555.598 256.458 555.682 256.643 555.75C256.827 555.815 257.005 555.869 257.175 555.912L258.028 556.134C258.306 556.202 258.592 556.294 258.884 556.411C259.177 556.527 259.448 556.68 259.698 556.871C259.948 557.061 260.15 557.297 260.303 557.578C260.46 557.859 260.538 558.196 260.538 558.588C260.538 559.082 260.41 559.521 260.154 559.905C259.901 560.288 259.533 560.591 259.05 560.812C258.57 561.034 257.989 561.145 257.308 561.145C256.654 561.145 256.089 561.041 255.612 560.834C255.134 560.626 254.761 560.332 254.491 559.952C254.221 559.568 254.072 559.114 254.043 558.588H255.364C255.39 558.903 255.492 559.166 255.671 559.376C255.853 559.584 256.085 559.739 256.366 559.841C256.65 559.94 256.961 559.99 257.299 559.99C257.671 559.99 258.002 559.932 258.292 559.815C258.585 559.696 258.815 559.531 258.982 559.321C259.15 559.108 259.234 558.859 259.234 558.575C259.234 558.317 259.16 558.105 259.012 557.94C258.867 557.776 258.67 557.639 258.42 557.531C258.173 557.423 257.893 557.328 257.58 557.246L256.549 556.964C255.85 556.774 255.296 556.494 254.887 556.125C254.481 555.756 254.278 555.267 254.278 554.659C254.278 554.156 254.414 553.717 254.687 553.342C254.96 552.967 255.329 552.676 255.795 552.469C256.261 552.259 256.786 552.153 257.371 552.153C257.962 552.153 258.484 552.257 258.935 552.464C259.39 552.672 259.748 552.957 260.009 553.321C260.271 553.682 260.407 554.097 260.418 554.565H259.148ZM262.778 561H261.38L264.521 552.273H266.042L269.183 561H267.785L265.318 553.858H265.25L262.778 561ZM263.012 557.582H267.547V558.69H263.012V557.582ZM275.939 555.03C275.857 554.771 275.746 554.54 275.607 554.335C275.471 554.128 275.307 553.952 275.117 553.807C274.926 553.659 274.709 553.547 274.465 553.47C274.223 553.393 273.958 553.355 273.668 553.355C273.176 553.355 272.733 553.482 272.338 553.734C271.944 553.987 271.631 554.358 271.401 554.847C271.174 555.332 271.06 555.928 271.06 556.632C271.06 557.339 271.175 557.937 271.405 558.426C271.635 558.915 271.951 559.286 272.351 559.538C272.752 559.791 273.208 559.918 273.719 559.918C274.194 559.918 274.607 559.821 274.959 559.628C275.314 559.435 275.588 559.162 275.782 558.81C275.978 558.455 276.076 558.037 276.076 557.557L276.417 557.621H273.919V556.534H277.35V557.527C277.35 558.26 277.194 558.896 276.881 559.436C276.571 559.973 276.142 560.388 275.594 560.68C275.049 560.973 274.424 561.119 273.719 561.119C272.929 561.119 272.236 560.938 271.64 560.574C271.046 560.21 270.583 559.695 270.25 559.027C269.918 558.357 269.752 557.561 269.752 556.641C269.752 555.945 269.848 555.32 270.042 554.766C270.235 554.212 270.506 553.741 270.855 553.355C271.208 552.966 271.621 552.669 272.096 552.464C272.573 552.257 273.094 552.153 273.659 552.153C274.131 552.153 274.57 552.223 274.976 552.362C275.385 552.501 275.749 552.699 276.067 552.955C276.388 553.21 276.654 553.514 276.864 553.866C277.074 554.216 277.216 554.604 277.29 555.03H275.939ZM279.021 561V552.273H284.493V553.406H280.338V556.065H284.207V557.195H280.338V559.866H284.544V561H279.021Z" fill="black"/>
</svg>
